<?xml version="1.0" encoding="UTF-8" standalone="no"?>
<!-- Created with Inkscape (http://www.inkscape.org/) -->

<svg
   width="1020"
   height="1020"
   viewBox="0 0 269.875 269.87503"
   version="1.1"
   id="svg5"
   inkscape:version="1.1.1 (c3084ef, 2021-09-22)"
   sodipodi:docname="icon.svg"
   xmlns:inkscape="http://www.inkscape.org/namespaces/inkscape"
   xmlns:sodipodi="http://sodipodi.sourceforge.net/DTD/sodipodi-0.dtd"
   xmlns="http://www.w3.org/2000/svg"
   xmlns:svg="http://www.w3.org/2000/svg">
  <sodipodi:namedview
     id="namedview7"
     pagecolor="#ffffff"
     bordercolor="#666666"
     borderopacity="1.0"
     inkscape:pageshadow="2"
     inkscape:pageopacity="0.0"
     inkscape:pagecheckerboard="0"
     inkscape:document-units="mm"
     showgrid="false"
     scale-x="1"
     units="px"
     width="1002.8049px"
     fit-margin-top="10"
     fit-margin-left="10"
     fit-margin-right="10"
     fit-margin-bottom="10"
     lock-margins="true"
     inkscape:zoom="0.64052329"
     inkscape:cx="122.55604"
     inkscape:cy="506.61702"
     inkscape:window-width="2560"
     inkscape:window-height="1387"
     inkscape:window-x="1200"
     inkscape:window-y="259"
     inkscape:window-maximized="0"
     inkscape:current-layer="layer1" />
  <defs
     id="defs2" />
  <g
     inkscape:label="Layer 1"
     inkscape:groupmode="layer"
     id="layer1"
     transform="translate(-72.413814,-14.320359)">
    <g
       id="g211"
       transform="translate(57.834566,-1.8067953)">
      <path
         style="fill:#fbe5d6;stroke-width:0.264583"
         d="m 145.8359,249.69308 c 0.32912,-0.0633 0.80537,-0.0609 1.05833,0.005 0.25297,0.0662 -0.0163,0.118 -0.5984,0.11506 -0.58208,-0.003 -0.78905,-0.0571 -0.45993,-0.1204 z m 6.35,0 c 0.32912,-0.0633 0.80537,-0.0609 1.05833,0.005 0.25297,0.0662 -0.0163,0.118 -0.5984,0.11506 -0.58208,-0.003 -0.78905,-0.0571 -0.45993,-0.1204 z m 70.8391,-29.71079 c 0.56839,-0.58208 1.09297,-1.05833 1.16573,-1.05833 0.0728,0 -0.33276,0.47625 -0.90114,1.05833 -0.56839,0.58209 -1.09297,1.05834 -1.16573,1.05834 -0.0728,0 0.33275,-0.47625 0.90114,-1.05834 z m -149.25014,-1.91823 -0.504029,-0.59531 0.595313,0.50403 c 0.327422,0.27721 0.595312,0.54511 0.595312,0.59531 0,0.21174 -0.212934,0.0554 -0.686596,-0.50403 z m 70.73504,0.1555 c 0.1819,-0.0734 0.47955,-0.0734 0.66145,0 0.18191,0.0734 0.0331,0.13346 -0.33073,0.13346 -0.3638,0 -0.51263,-0.0601 -0.33072,-0.13346 z m 9.54153,-0.006 c 0.191,-0.0764 0.4192,-0.067 0.50712,0.0209 0.0879,0.0879 -0.0684,0.15045 -0.34726,0.13896 -0.30823,-0.0127 -0.37092,-0.0754 -0.15986,-0.15985 z m 71.88399,-1.14218 c 0.26339,-0.29105 0.53842,-0.52917 0.61118,-0.52917 0.0728,0 -0.0832,0.23812 -0.3466,0.52917 -0.26339,0.29104 -0.53842,0.52916 -0.61118,0.52916 -0.0728,0 0.0832,-0.23812 0.3466,-0.52916 z m 14.94896,-28.6749 c 0,-0.0549 0.20836,-0.2633 0.46302,-0.46302 0.41964,-0.32911 0.429,-0.31975 0.0999,0.0999 -0.34564,0.44073 -0.56291,0.58089 -0.56291,0.36313 z m 6.61458,-6.61458 c 0,-0.0549 0.20836,-0.2633 0.46302,-0.46303 0.41965,-0.3291 0.42901,-0.31974 0.0999,0.0999 -0.34565,0.44073 -0.56292,0.58089 -0.56292,0.36313 z M 52.368747,107.26979 c 0.263389,-0.29104 0.538421,-0.52917 0.611181,-0.52917 0.07276,0 -0.08321,0.23813 -0.346597,0.52917 -0.263389,0.29104 -0.538421,0.52917 -0.611181,0.52917 -0.07276,0 0.08321,-0.23813 0.346597,-0.52917 z m 3.439584,-3.43958 c 0.263389,-0.29105 0.53842,-0.52917 0.611181,-0.52917 0.07276,0 -0.08321,0.23812 -0.346598,0.52917 -0.263389,0.29104 -0.53842,0.52916 -0.611181,0.52916 -0.07276,0 0.08321,-0.23812 0.346598,-0.52916 z M 70.757289,75.419892 c 0,-0.05494 0.20836,-0.2633 0.463021,-0.463021 0.419645,-0.329107 0.429004,-0.319749 0.0999,0.0999 -0.345643,0.44073 -0.562917,0.580888 -0.562917,0.363125 z m 78.121871,-3.529547 c 0.40218,-0.06082 0.99749,-0.05919 1.32292,0.0036 0.32542,0.0628 -0.004,0.112559 -0.73125,0.110575 -0.7276,-0.0021 -0.99385,-0.05337 -0.59167,-0.114186 z m -71.242704,-3.34962 c 0,-0.05494 0.20836,-0.2633 0.463021,-0.463021 0.419645,-0.329107 0.429003,-0.319749 0.0999,0.0999 -0.345644,0.44073 -0.562917,0.580888 -0.562917,0.363125 z M 156.43268,40.678629 c 0.191,-0.07643 0.4192,-0.06703 0.50712,0.02089 0.0879,0.08792 -0.0683,0.150453 -0.34726,0.138965 -0.30823,-0.01269 -0.37092,-0.07539 -0.15986,-0.159853 z"
         id="path241" />
      <path
         style="fill:#e7e7e7;stroke-width:0.264583"
         d="m 68.061847,283.56614 c 0.190994,-0.0764 0.419198,-0.067 0.507119,0.0209 0.08792,0.0879 -0.06835,0.15047 -0.347266,0.13899 -0.308226,-0.0127 -0.370919,-0.0754 -0.159853,-0.15986 z m 16.850651,-5.64009 c 0.26339,-0.29105 0.538422,-0.52917 0.611182,-0.52917 0.07276,0 -0.08321,0.23812 -0.346599,0.52917 -0.26339,0.29104 -0.538421,0.52916 -0.611182,0.52916 -0.07276,0 0.08321,-0.23812 0.346599,-0.52916 z m 6.004706,-13.36146 c 0.0054,-0.43657 0.06469,-0.58313 0.131773,-0.3257 0.06708,0.25743 0.06267,0.61462 -0.0098,0.79375 -0.07248,0.17913 -0.127363,-0.0315 -0.12197,-0.46805 z m -40.491055,-0.92605 c 0,-0.3638 0.06005,-0.51263 0.133452,-0.33072 0.0734,0.1819 0.0734,0.47955 0,0.66145 -0.0734,0.18191 -0.133452,0.0331 -0.133452,-0.33073 z m 40.500858,-1.05833 c 0,-0.50932 0.05445,-0.71768 0.121002,-0.46302 0.06655,0.25466 0.06655,0.67138 0,0.92604 -0.06655,0.25466 -0.121002,0.0463 -0.121002,-0.46302 z m -5.89646,-13.4276 -0.911799,-0.99219 0.992188,0.9118 c 0.545703,0.50149 0.992187,0.94797 0.992187,0.99219 0,0.20204 -0.223896,0.0117 -1.072576,-0.9118 z m -16.439534,-5.80314 c 0.190995,-0.0764 0.419198,-0.067 0.507119,0.0209 0.08792,0.0879 -0.06835,0.15045 -0.347265,0.13896 -0.308227,-0.0127 -0.37092,-0.0754 -0.159854,-0.15985 z m 85.245447,-69.80155 c 0.34177,-0.36381 0.68094,-0.66146 0.7537,-0.66146 0.0728,0 -0.14734,0.29765 -0.48912,0.66146 -0.34177,0.3638 -0.68094,0.66145 -0.7537,0.66145 -0.0728,0 0.14734,-0.29765 0.48912,-0.66145 z m 69.12603,-9.84716 c 0.40219,-0.0608 0.9975,-0.0592 1.32292,0.004 0.32542,0.0628 -0.004,0.11256 -0.73124,0.11058 -0.72761,-0.002 -0.99386,-0.0534 -0.59168,-0.11419 z M 251.85172,153.175 c -8e-5,-5.23875 0.0353,-7.41938 0.0785,-4.84584 0.0433,2.57354 0.0434,6.85979 1.5e-4,9.525 -0.0432,2.66521 -0.0786,0.55959 -0.0787,-4.67916 z m -167.865264,7.45783 c 0,-0.0455 0.386954,-0.43248 0.859896,-0.85989 l 0.859896,-0.77711 -0.777105,0.8599 c -0.724371,0.80154 -0.942687,0.98151 -0.942687,0.7771 z m -38.769834,-17.512 c -3.6e-5,-8.44021 0.03341,-11.93129 0.07433,-7.75795 0.04092,4.17333 0.04095,11.07896 6.6e-5,15.34583 -0.04088,4.26688 -0.07436,0.85233 -0.07439,-7.58788 z m 166.605368,4.36563 c 0,-0.3638 0.06,-0.51263 0.13345,-0.33073 0.0734,0.1819 0.0734,0.47956 0,0.66146 -0.0734,0.1819 -0.13345,0.0331 -0.13345,-0.33073 z m 24.34166,-1.32292 c 0,-0.3638 0.0601,-0.51263 0.13346,-0.33073 0.0734,0.1819 0.0734,0.47956 0,0.66146 -0.0734,0.1819 -0.13346,0.0331 -0.13346,-0.33073 z M 205.4511,146.0092 c 0.0127,-0.30823 0.0754,-0.37092 0.15985,-0.15985 0.0764,0.19099 0.067,0.4192 -0.0209,0.50712 -0.0879,0.0879 -0.15045,-0.0684 -0.13896,-0.34727 z m 30.72236,-1.56545 c 0.005,-0.43656 0.0647,-0.58313 0.13177,-0.3257 0.0671,0.25744 0.0627,0.61462 -0.01,0.79375 -0.0725,0.17914 -0.12737,-0.0315 -0.12198,-0.46805 z m -56.82443,-11.59764 c -0.0745,-0.19406 -0.095,-1.35492 -0.0455,-2.57969 l 0.0898,-2.22684 0.0539,2.43814 0.0538,2.43814 2.71198,0.0857 2.71198,0.0857 -2.72028,0.0558 c -2.06329,0.0423 -2.75299,-0.0294 -2.85569,-0.29705 z m 20.8849,-2.29299 c 0,-1.38244 0.0446,-1.94799 0.0991,-1.25677 0.0545,0.69123 0.0545,1.82232 0,2.51354 -0.0545,0.69123 -0.0991,0.12568 -0.0991,-1.25677 z m 10.48795,1.45521 c 0.34177,-0.3638 0.68094,-0.66146 0.7537,-0.66146 0.0728,0 -0.14734,0.29766 -0.48912,0.66146 -0.34178,0.3638 -0.68094,0.66146 -0.7537,0.66146 -0.0728,0 0.14734,-0.29766 0.48912,-0.66146 z M 46.258192,63.282808 l -0.504028,-0.595312 0.595312,0.504028 c 0.559447,0.473663 0.715762,0.686597 0.504028,0.686597 -0.05021,0 -0.318097,-0.267891 -0.595312,-0.595313 z m 169.206158,-17.594792 -0.64143,-0.727604 0.7276,0.641432 c 0.40019,0.35279 0.72761,0.680212 0.72761,0.727604 0,0.207507 -0.21426,0.03862 -0.81378,-0.641432 z m 22.50961,0.363125 c 0,-0.05494 0.20836,-0.2633 0.46302,-0.463021 0.41965,-0.329107 0.42901,-0.319749 0.0999,0.0999 -0.34565,0.44073 -0.56292,0.580887 -0.56292,0.363125 z m -23.28333,-22.225 c 0,-0.05494 0.20836,-0.263301 0.46302,-0.463021 0.41964,-0.329107 0.429,-0.319749 0.0999,0.0999 -0.34564,0.440729 -0.56291,0.580887 -0.56291,0.363126 z m 1.05833,-1.058333 c 0,-0.05494 0.20836,-0.263302 0.46302,-0.463021 0.41965,-0.329108 0.429,-0.319749 0.0999,0.0999 -0.34565,0.440729 -0.56292,0.580887 -0.56292,0.363126 z"
         id="path239" />
      <path
         style="fill:#fbdbc7;stroke-width:0.264583"
         d="m 147.42031,249.70498 c 0.1819,-0.0734 0.47956,-0.0734 0.66146,0 0.1819,0.0734 0.0331,0.13346 -0.33073,0.13346 -0.3638,0 -0.51263,-0.0601 -0.33073,-0.13346 z m 3.72071,-0.006 c 0.19099,-0.0764 0.4192,-0.067 0.50711,0.0209 0.0879,0.0879 -0.0684,0.15045 -0.34726,0.13896 -0.30823,-0.0127 -0.37092,-0.0754 -0.15985,-0.15985 z M 224.74479,218.262 c 0.34178,-0.3638 0.68094,-0.66146 0.7537,-0.66146 0.0728,0 -0.14734,0.29766 -0.48911,0.66146 -0.34178,0.3638 -0.68094,0.66146 -0.7537,0.66146 -0.0728,0 0.14734,-0.29766 0.48911,-0.66146 z m -81.01211,-0.0485 c 0.191,-0.0764 0.4192,-0.067 0.50712,0.0209 0.0879,0.0879 -0.0684,0.15045 -0.34726,0.13896 -0.30823,-0.0127 -0.37092,-0.0754 -0.15986,-0.15985 z m 11.1125,0 c 0.191,-0.0764 0.4192,-0.067 0.50712,0.0209 0.0879,0.0879 -0.0684,0.15045 -0.34726,0.13896 -0.30823,-0.0127 -0.37092,-0.0754 -0.15986,-0.15985 z M 146.89423,71.893075 c 0.32912,-0.06328 0.80537,-0.06088 1.05833,0.0053 0.25297,0.06622 -0.0163,0.118004 -0.59839,0.115067 -0.58209,-0.0029 -0.78906,-0.05712 -0.45994,-0.120406 z m 4.23333,0 c 0.32912,-0.06328 0.80537,-0.06088 1.05834,0.0053 0.25296,0.06622 -0.0163,0.118004 -0.5984,0.115067 -0.58208,-0.0029 -0.78905,-0.05712 -0.45994,-0.120406 z"
         id="path237" />
      <path
         style="fill:#f9ccae;stroke-width:0.264583"
         d="m 148.87552,249.6907 c 0.40018,-0.0606 1.05503,-0.0606 1.45521,0 0.40018,0.0606 0.0728,0.11023 -0.72761,0.11023 -0.80036,0 -1.12778,-0.0496 -0.7276,-0.11023 z m 7.82175,-0.25581 c 0.19099,-0.0764 0.4192,-0.067 0.50711,0.0209 0.0879,0.0879 -0.0683,0.15046 -0.34726,0.13897 -0.30823,-0.0127 -0.37092,-0.0754 -0.15985,-0.15985 z m -14.03946,-31.21533 c 0.1819,-0.0734 0.47956,-0.0734 0.66146,0 0.1819,0.0734 0.0331,0.13346 -0.33073,0.13346 -0.3638,0 -0.51263,-0.0601 -0.33073,-0.13346 z m 12.96459,0 c 0.1819,-0.0734 0.47955,-0.0734 0.66145,0 0.18191,0.0734 0.0331,0.13346 -0.33072,0.13346 -0.36381,0 -0.51264,-0.0601 -0.33073,-0.13346 z m -17.97513,-0.27009 c 0.19099,-0.0764 0.4192,-0.067 0.50711,0.0209 0.0879,0.0879 -0.0684,0.15045 -0.34726,0.13896 -0.30823,-0.0127 -0.37092,-0.0754 -0.15985,-0.15985 z m 106.27982,-32.36301 c 0.26339,-0.29104 0.53842,-0.52917 0.61118,-0.52917 0.0728,0 -0.0832,0.23813 -0.3466,0.52917 -0.26339,0.29104 -0.53842,0.52917 -0.61118,0.52917 -0.0728,0 0.0832,-0.23813 0.3466,-0.52917 z m 1.5875,-1.5875 c 0.26339,-0.29104 0.53842,-0.52917 0.61118,-0.52917 0.0728,0 -0.0832,0.23813 -0.3466,0.52917 -0.26339,0.29104 -0.53842,0.52917 -0.61118,0.52917 -0.0728,0 0.0832,-0.23813 0.3466,-0.52917 z M 145.17135,71.897819 c 0.25467,-0.06655 0.67138,-0.06655 0.92605,0 0.25466,0.06655 0.0463,0.121002 -0.46303,0.121002 -0.50932,0 -0.71768,-0.05445 -0.46302,-0.121002 z m 7.67292,0 c 0.25466,-0.06655 0.67138,-0.06655 0.92604,0 0.25466,0.06655 0.0463,0.121002 -0.46302,0.121002 -0.50932,0 -0.71768,-0.05445 -0.46302,-0.121002 z m -9.64075,-31.21919 c 0.19099,-0.07643 0.4192,-0.06703 0.50711,0.02089 0.0879,0.08792 -0.0684,0.150453 -0.34726,0.138965 -0.30823,-0.01269 -0.37092,-0.07539 -0.15985,-0.159853 z"
         id="path235" />
      <path
         style="fill:#cfcfcf;stroke-width:0.264583"
         d="m 68.855597,283.56614 c 0.190994,-0.0764 0.419198,-0.067 0.507119,0.0209 0.08792,0.0879 -0.06835,0.15047 -0.347266,0.13899 -0.308226,-0.0127 -0.370919,-0.0754 -0.159853,-0.15986 z m 3.704166,0 c 0.190995,-0.0764 0.419198,-0.067 0.507119,0.0209 0.08792,0.0879 -0.06835,0.15047 -0.347265,0.13899 -0.308227,-0.0127 -0.37092,-0.0754 -0.159854,-0.15986 z m -17.182056,-6.89687 c -0.329108,-0.41964 -0.31975,-0.429 0.09989,-0.0999 0.44073,0.34564 0.580888,0.56292 0.363127,0.56292 -0.05494,0 -0.263302,-0.20836 -0.463021,-0.46303 z m 0.95979,-27.31823 c 0.56839,-0.58208 1.092967,-1.05833 1.165727,-1.05833 0.07276,0 -0.332754,0.47625 -0.901143,1.05833 -0.56839,0.58209 -1.092967,1.05834 -1.165727,1.05834 -0.07276,0 0.332754,-0.47625 0.901143,-1.05834 z m 13.168057,-6.00418 c 0.257431,-0.0671 0.614619,-0.0627 0.79375,0.01 0.17913,0.0725 -0.03149,0.12737 -0.468056,0.12197 -0.436563,-0.005 -0.583126,-0.0647 -0.325694,-0.13177 z m 2.111631,0.001 c 0.254662,-0.0665 0.67138,-0.0665 0.926042,0 0.254661,0.0666 0.0463,0.121 -0.463021,0.121 -0.509323,0 -0.717682,-0.0545 -0.463021,-0.121 z m 32.868445,-88.18855 c 0,-12.00547 0.0324,-16.91679 0.0721,-10.91406 0.0396,6.00274 0.0396,15.82539 0,21.82813 -0.0397,6.00273 -0.0721,1.0914 -0.0721,-10.91407 z m 116.89076,8.5479 c 0.25743,-0.0671 0.61462,-0.0627 0.79375,0.01 0.17913,0.0725 -0.0315,0.12736 -0.46805,0.12197 -0.43657,-0.005 -0.58313,-0.0647 -0.3257,-0.13178 z m -169.607717,-2.1979 c 0,-0.50932 0.05445,-0.71768 0.121,-0.46302 0.06655,0.25467 0.06655,0.67138 0,0.92605 -0.06655,0.25466 -0.121,0.0463 -0.121,-0.46303 z m 35.149089,-0.6835 c 0.0127,-0.30823 0.07539,-0.37092 0.159851,-0.15985 0.07643,0.19099 0.06703,0.4192 -0.02088,0.50711 -0.08792,0.0879 -0.150453,-0.0683 -0.138964,-0.34726 z m 112.712508,0 c 0.0127,-0.30823 0.0754,-0.37092 0.15985,-0.15985 0.0764,0.19099 0.067,0.4192 -0.0209,0.50711 -0.0879,0.0879 -0.15045,-0.0683 -0.13896,-0.34726 z m -154.465502,-1.4331 c 0,-0.65485 0.0516,-0.92274 0.114663,-0.59531 0.06306,0.32742 0.06306,0.8632 0,1.19062 -0.06307,0.32742 -0.114663,0.0595 -0.114663,-0.59531 z m 86.975852,-0.13229 c 0.34178,-0.36381 0.68094,-0.66146 0.7537,-0.66146 0.0728,0 -0.14734,0.29765 -0.48911,0.66146 -0.34178,0.3638 -0.68094,0.66145 -0.7537,0.66145 -0.0728,0 0.14734,-0.29765 0.48911,-0.66145 z m 93.87748,-0.8422 c 0.191,-0.0764 0.4192,-0.067 0.50712,0.0209 0.0879,0.0879 -0.0683,0.15046 -0.34727,0.13897 -0.30822,-0.0127 -0.37091,-0.0754 -0.15985,-0.15985 z m -112.55574,-2.79582 -0.50403,-0.59532 0.59531,0.50403 c 0.55945,0.47366 0.71577,0.6866 0.50403,0.6866 -0.0502,0 -0.31809,-0.26789 -0.59531,-0.59531 z m 101.98827,0.13229 c -0.32911,-0.41965 -0.31975,-0.42901 0.0999,-0.0999 0.25466,0.19972 0.46302,0.40808 0.46302,0.46302 0,0.21776 -0.21727,0.0776 -0.56291,-0.36312 z m -9.99953,-7.36424 c 0.0127,-0.30823 0.0754,-0.37092 0.15985,-0.15985 0.0764,0.19099 0.067,0.4192 -0.0209,0.50712 -0.0879,0.0879 -0.15045,-0.0684 -0.13896,-0.34727 z m 0,-1.5875 c 0.0127,-0.30823 0.0754,-0.37092 0.15985,-0.15985 0.0764,0.19099 0.067,0.4192 -0.0209,0.50712 -0.0879,0.0879 -0.15045,-0.0684 -0.13896,-0.34727 z m 46.30208,-3.43958 c 0.0127,-0.30823 0.0754,-0.37092 0.15985,-0.15986 0.0764,0.191 0.067,0.4192 -0.0209,0.50712 -0.0879,0.0879 -0.15045,-0.0684 -0.13897,-0.34726 z m -137.73651,-7.78316 c 0.26339,-0.29104 0.53842,-0.52917 0.61118,-0.52917 0.0728,0 -0.0832,0.23813 -0.3466,0.52917 -0.26339,0.29104 -0.53842,0.52916 -0.61118,0.52916 -0.0728,0 0.0832,-0.23812 0.3466,-0.52916 z m 148.66455,-5.15938 c 5.3e-4,-1.74625 0.0433,-2.42619 0.0952,-1.51098 0.0518,0.9152 0.0514,2.34395 -10e-4,3.175 -0.0523,0.83104 -0.0947,0.0822 -0.0942,-1.66402 z m -69.3557,2.58113 c 1.27331,-0.0485 3.3569,-0.0485 4.63021,0 1.27331,0.0485 0.23151,0.0882 -2.3151,0.0882 -2.54662,0 -3.58842,-0.0397 -2.31511,-0.0882 z m 52.07766,-3.13234 c 0.0127,-0.30823 0.0754,-0.37092 0.15985,-0.15986 0.0764,0.191 0.067,0.4192 -0.0209,0.50712 -0.0879,0.0879 -0.15045,-0.0684 -0.13897,-0.34726 z m -135.44578,-0.904 c 0,-0.3638 0.06,-0.51263 0.13345,-0.33073 0.0734,0.18191 0.0734,0.47956 0,0.66146 -0.0734,0.1819 -0.13345,0.0331 -0.13345,-0.33073 z m -22.068339,-0.98964 c 0.909505,-0.0517 2.397786,-0.0517 3.307291,0 0.909506,0.0517 0.165365,0.0939 -1.653645,0.0939 -1.819011,0 -2.563152,-0.0423 -1.653646,-0.0939 z M 66.326095,55.014579 c 0.0029,-0.582084 0.05712,-0.789054 0.120407,-0.459936 0.06329,0.329118 0.06088,0.805368 -0.0053,1.058333 -0.06622,0.252966 -0.118004,-0.01632 -0.115067,-0.598397 z M 42.996927,54.198781 c 0.01269,-0.308226 0.07539,-0.370919 0.159852,-0.159853 0.07643,0.190995 0.06703,0.419198 -0.02089,0.507119 -0.08792,0.08792 -0.150453,-0.06835 -0.138964,-0.347266 z m 3.154112,-7.089307 c 0,-0.05494 0.208359,-0.2633 0.463021,-0.463021 0.419644,-0.329107 0.429002,-0.319749 0.09989,0.0999 -0.345643,0.44073 -0.562915,0.580888 -0.562915,0.363125 z m 16.635,-0.363125 c -0.329107,-0.419645 -0.319749,-0.429003 0.0999,-0.0999 0.254661,0.199721 0.463021,0.40808 0.463021,0.463021 0,0.217763 -0.217273,0.0776 -0.562917,-0.363125 z"
         id="path233" />
      <path
         style="fill:#f7b78d;stroke-width:0.264583"
         d="m 141.59948,218.21956 c 0.1819,-0.0734 0.47956,-0.0734 0.66146,0 0.1819,0.0734 0.0331,0.13346 -0.33073,0.13346 -0.3638,0 -0.51263,-0.0601 -0.33073,-0.13346 z m 15.08125,0 c 0.1819,-0.0734 0.47956,-0.0734 0.66146,0 0.1819,0.0734 0.0331,0.13346 -0.33073,0.13346 -0.3638,0 -0.51263,-0.0601 -0.33073,-0.13346 z m 86.05573,-31.41008 c 0,-0.0549 0.20836,-0.2633 0.46302,-0.46302 0.41965,-0.32911 0.42901,-0.31975 0.0999,0.0999 -0.34565,0.44073 -0.56292,0.58089 -0.56292,0.36313 z M 53.790207,184.59427 c -0.329108,-0.41964 -0.31975,-0.429 0.09989,-0.0999 0.44073,0.34564 0.580888,0.56291 0.363127,0.56291 -0.05494,0 -0.263302,-0.20836 -0.463021,-0.46302 z M 246.17604,183.3699 c 0,-0.0549 0.20836,-0.2633 0.46303,-0.46303 0.41964,-0.3291 0.429,-0.31974 0.0999,0.0999 -0.34564,0.44073 -0.56292,0.58089 -0.56292,0.36313 z M 226.82771,74.263017 c -0.32911,-0.419645 -0.31975,-0.429003 0.0999,-0.0999 0.44073,0.345644 0.58088,0.562917 0.36312,0.562917 -0.0549,0 -0.2633,-0.208359 -0.46302,-0.463021 z m -88.65128,-2.098969 c 0.191,-0.07643 0.4192,-0.06703 0.50712,0.02088 0.0879,0.08792 -0.0684,0.150453 -0.34726,0.138964 -0.30823,-0.0127 -0.37092,-0.07539 -0.15986,-0.15985 z m 22.225,0 c 0.191,-0.07643 0.4192,-0.06703 0.50712,0.02088 0.0879,0.08792 -0.0683,0.150453 -0.34726,0.138964 -0.30823,-0.0127 -0.37092,-0.07539 -0.15986,-0.15985 z m -16.4207,-0.259072 c 0.1819,-0.0734 0.47956,-0.0734 0.66146,0 0.1819,0.0734 0.0331,0.133453 -0.33073,0.133453 -0.3638,0 -0.51263,-0.06005 -0.33073,-0.133453 z m 10.45608,-0.0081 c 0.25743,-0.06708 0.61462,-0.06267 0.79375,0.0098 0.17913,0.07248 -0.0315,0.127362 -0.46806,0.12197 -0.43656,-0.0054 -0.58313,-0.06469 -0.32569,-0.131773 z M 76.181248,69.963538 c 0.26339,-0.291042 0.538422,-0.529167 0.611182,-0.529167 0.07276,0 -0.08321,0.238125 -0.346599,0.529167 -0.26339,0.291041 -0.538422,0.529166 -0.611182,0.529166 -0.07276,0 0.08321,-0.238125 0.346599,-0.529166 z M 154.84518,40.678629 c 0.191,-0.07643 0.4192,-0.06703 0.50712,0.02089 0.0879,0.08792 -0.0684,0.150453 -0.34726,0.138965 -0.30823,-0.01269 -0.37092,-0.07539 -0.15986,-0.159853 z"
         id="path231" />
      <path
         style="fill:#f6a773;stroke-width:0.264583"
         d="m 143.20352,249.43489 c 0.19099,-0.0764 0.4192,-0.067 0.50711,0.0209 0.0879,0.0879 -0.0684,0.15046 -0.34726,0.13897 -0.30823,-0.0127 -0.37092,-0.0754 -0.15985,-0.15985 z m 12.17083,0 c 0.19099,-0.0764 0.4192,-0.067 0.50712,0.0209 0.0879,0.0879 -0.0684,0.15046 -0.34727,0.13897 -0.30822,-0.0127 -0.37092,-0.0754 -0.15985,-0.15985 z M 72.311039,216.34427 c -0.329107,-0.41964 -0.319749,-0.429 0.0999,-0.0999 0.254662,0.19972 0.463021,0.40808 0.463021,0.46302 0,0.21776 -0.217273,0.0776 -0.562917,-0.36313 z m -17.313103,-30.55937 -0.777105,-0.8599 0.859895,0.77711 c 0.472943,0.4274 0.859896,0.81436 0.859896,0.85989 0,0.20441 -0.218315,0.0245 -0.942686,-0.7771 z m -2.125161,-2.11667 -0.504028,-0.59531 0.595313,0.50403 c 0.559447,0.47366 0.715761,0.68659 0.504028,0.68659 -0.05021,0 -0.318097,-0.26789 -0.595313,-0.59531 z m -2.488403,-74.51805 c 0,-0.12995 0.195435,-0.31127 0.434299,-0.40293 0.363133,-0.13935 0.379502,-0.10063 0.09989,0.23627 -0.381034,0.45912 -0.534194,0.5069 -0.534194,0.16666 z m 195.242478,-2.87258 -0.64143,-0.7276 0.7276,0.64143 c 0.40019,0.35279 0.72761,0.68021 0.72761,0.7276 0,0.20751 -0.21426,0.0386 -0.81378,-0.64143 z m -1.7249,-1.71979 -0.50403,-0.59531 0.59531,0.50403 c 0.55945,0.47366 0.71576,0.68659 0.50403,0.68659 -0.0502,0 -0.3181,-0.26789 -0.59531,-0.59531 z M 74.329165,71.815621 c 0.716663,-0.727604 1.362556,-1.322917 1.435317,-1.322917 0.07276,0 -0.45407,0.595313 -1.170734,1.322917 -0.716664,0.727604 -1.362557,1.322917 -1.435317,1.322917 -0.07276,0 0.45407,-0.595313 1.170734,-1.322917 z m 68.465975,0.08123 c 0.25743,-0.06708 0.61462,-0.06267 0.79375,0.0098 0.17913,0.07248 -0.0315,0.127362 -0.46806,0.12197 -0.43656,-0.0054 -0.58312,-0.06469 -0.32569,-0.131773 z m 12.82726,0.0081 c 0.1819,-0.0734 0.47955,-0.0734 0.66145,0 0.18191,0.0734 0.0331,0.133453 -0.33072,0.133453 -0.36381,0 -0.51264,-0.06006 -0.33073,-0.133453 z M 144.52643,40.678629 c 0.191,-0.07643 0.4192,-0.06703 0.50712,0.02089 0.0879,0.08792 -0.0683,0.150453 -0.34726,0.138965 -0.30823,-0.01269 -0.37092,-0.07539 -0.15986,-0.159853 z"
         id="path229" />
      <path
         style="fill:#adadad;stroke-width:0.264583"
         d="m 70.166716,283.55514 c 0.475548,-0.0589 1.189923,-0.0577 1.5875,0.003 0.397576,0.0604 0.0085,0.10853 -0.864635,0.10705 -0.873125,-0.003 -1.198414,-0.0509 -0.722865,-0.10975 z M 84.76915,277.8599 c 0.648761,-0.69122 1.214307,-1.25677 1.25677,-1.25677 0.198671,0 -0.01138,0.23755 -1.179568,1.33397 l -1.256771,1.17957 z m -28.183714,0 -0.777105,-0.8599 0.859896,0.77711 c 0.472942,0.42741 0.859895,0.81436 0.859895,0.85989 0,0.20441 -0.218315,0.0245 -0.942686,-0.7771 z m -5.915592,-12.52361 c 0.01269,-0.30823 0.07539,-0.37092 0.159852,-0.15985 0.07643,0.19099 0.06703,0.4192 -0.02089,0.50711 -0.08792,0.0879 -0.150453,-0.0684 -0.138964,-0.34726 z m 0,-3.70417 c 0.01269,-0.30822 0.07539,-0.37092 0.159852,-0.15985 0.07643,0.19099 0.06703,0.4192 -0.02089,0.50712 -0.08792,0.0879 -0.150453,-0.0684 -0.138964,-0.34727 z m 33.018279,-13.53785 c -0.329107,-0.41964 -0.319749,-0.429 0.0999,-0.0999 0.44073,0.34564 0.580887,0.56291 0.363125,0.56291 -0.05494,0 -0.2633,-0.20836 -0.463021,-0.46302 z m -12.980443,-4.7448 c 0.190995,-0.0764 0.419198,-0.067 0.507119,0.0209 0.08792,0.0879 -0.06835,0.15045 -0.347266,0.13896 -0.308226,-0.0127 -0.370919,-0.0754 -0.159853,-0.15985 z m 40.12097,-75.75468 c 0,-5.16599 0.0354,-7.27935 0.0788,-4.69635 0.0433,2.58299 0.0433,6.80971 0,9.39271 -0.0433,2.58299 -0.0788,0.46963 -0.0788,-4.69636 z m 38.77447,2.01677 c 0,-0.0549 0.20836,-0.2633 0.46303,-0.46302 0.41964,-0.32911 0.429,-0.31975 0.0999,0.0999 -0.34564,0.44073 -0.56292,0.58088 -0.56292,0.36312 z m 44.78074,-6.1679 c 0.25466,-0.0666 0.67138,-0.0666 0.92604,0 0.25466,0.0666 0.0463,0.121 -0.46302,0.121 -0.50933,0 -0.71769,-0.0545 -0.46302,-0.121 z m 51.11955,-0.9421 c -0.0698,-0.1819 -0.0945,-5.56948 -0.055,-11.97239 l 0.0719,-11.64167 0.0633,11.83171 0.0633,11.8317 3.10885,0.0838 3.10886,0.0838 -3.11716,0.0569 c -2.29307,0.0419 -3.1507,-0.0305 -3.24402,-0.27384 z M 45.134482,160.98021 c 0,-0.3638 0.06005,-0.51263 0.133452,-0.33073 0.0734,0.1819 0.0734,0.47956 0,0.66146 -0.0734,0.1819 -0.133452,0.0331 -0.133452,-0.33073 z m 47.409343,-5.68854 c 0.0011,-1.16417 0.04748,-1.60751 0.10337,-0.9852 0.05589,0.62231 0.0551,1.57481 -0.0019,2.11667 -0.05685,0.54185 -0.102581,0.0327 -0.101621,-1.13147 z m 18.269195,-9.39271 c 0,-1.96453 0.0417,-2.76821 0.0926,-1.78594 0.0509,0.98227 0.0509,2.58961 0,3.57187 -0.0509,0.98227 -0.0926,0.1786 -0.0926,-1.78593 z m 94.63808,1.69774 c 0.0127,-0.30823 0.0754,-0.37092 0.15985,-0.15985 0.0764,0.19099 0.067,0.4192 -0.0209,0.50712 -0.0879,0.0879 -0.15045,-0.0684 -0.13896,-0.34727 z m 24.90152,-7.1217 c 0.005,-0.43656 0.0647,-0.58313 0.13178,-0.3257 0.0671,0.25744 0.0627,0.61462 -0.01,0.79375 -0.0725,0.17914 -0.12736,-0.0315 -0.12197,-0.46805 z m -15.5297,-5.68854 c 0.26339,-0.29104 0.53842,-0.52917 0.61118,-0.52917 0.0728,0 -0.0832,0.23813 -0.3466,0.52917 -0.26339,0.29104 -0.53842,0.52916 -0.61118,0.52916 -0.0728,0 0.0832,-0.23812 0.3466,-0.52916 z m -110.41197,-1.98438 c 0.005,-0.43656 0.0647,-0.58312 0.13178,-0.32569 0.0671,0.25743 0.0627,0.61462 -0.01,0.79375 -0.0725,0.17913 -0.12736,-0.0315 -0.12197,-0.46806 z m 156.91753,0.47811 c 0.25743,-0.0671 0.61461,-0.0627 0.79375,0.01 0.17913,0.0725 -0.0315,0.12736 -0.46806,0.12197 -0.43656,-0.005 -0.58313,-0.0647 -0.32569,-0.13177 z m -39.8083,-1.58489 c 0.191,-0.0764 0.4192,-0.067 0.50712,0.0209 0.0879,0.0879 -0.0684,0.15045 -0.34726,0.13896 -0.30823,-0.0127 -0.37092,-0.0754 -0.15986,-0.15985 z m -111.58367,-1.82568 c 0.0127,-0.30823 0.0754,-0.37092 0.15985,-0.15986 0.0764,0.191 0.067,0.4192 -0.0209,0.50712 -0.0879,0.0879 -0.15045,-0.0684 -0.13897,-0.34726 z m -45.0662,-1.62906 c 0.909505,-0.0517 2.397787,-0.0517 3.307292,0 0.909505,0.0517 0.165364,0.0939 -1.653646,0.0939 -1.819011,0 -2.563151,-0.0423 -1.653646,-0.0939 z m 40.88779,8e-5 c 0.84205,-0.0527 2.15174,-0.0522 2.91041,10e-4 0.75867,0.0533 0.0697,0.0964 -1.53101,0.0958 -1.60073,-5.3e-4 -2.22146,-0.0442 -1.3794,-0.0968 z m 79.14171,-4.16981 c 2.6e-4,-2.32833 0.0408,-3.24541 0.0899,-2.03796 0.0491,1.20746 0.0489,3.11246 -5.3e-4,4.23334 -0.0495,1.12087 -0.0897,0.13295 -0.0893,-2.19538 z m -62.08575,3.39665 c 0.1819,-0.0734 0.47956,-0.0734 0.66146,0 0.1819,0.0734 0.0331,0.13345 -0.33073,0.13345 -0.3638,0 -0.51263,-0.0601 -0.33073,-0.13345 z M 43.017815,55.14687 c 0,-0.363802 0.06005,-0.51263 0.133452,-0.330729 0.0734,0.181901 0.0734,0.479558 0,0.661459 -0.0734,0.181901 -0.133452,0.03307 -0.133452,-0.33073 z M 238.20479,22.933848 c -0.3291,-0.419644 -0.31975,-0.429002 0.0999,-0.09989 0.25466,0.199719 0.46302,0.408078 0.46302,0.463021 0,0.217761 -0.21727,0.0776 -0.56292,-0.363127 z"
         id="path227" />
      <path
         style="fill:#9c9c9c;stroke-width:0.264583"
         d="m 65.862498,282.97721 c -3.543425,-0.96621 -6.249524,-2.46476 -8.801425,-4.87388 -5.844887,-5.51788 -7.832015,-13.87149 -5.088149,-21.38986 1.074996,-2.94556 2.452492,-5.07721 4.757671,-7.36243 2.926947,-2.90159 6.084736,-4.60384 10.143114,-5.46778 2.635464,-0.56103 7.331398,-0.34896 9.836706,0.44423 5.429446,1.71899 9.737712,5.42661 12.158546,10.46345 1.432277,2.98002 1.830795,4.83474 1.844209,8.58302 0.01421,3.96832 -0.379902,5.67493 -2.13619,9.25045 -1.040286,2.11786 -1.600748,2.87201 -3.63774,4.89486 -2.742851,2.72381 -4.460055,3.82654 -7.762839,4.98502 -2.068152,0.72541 -2.703163,0.82195 -5.889945,0.89551 -2.879828,0.0665 -3.930714,-0.0154 -5.423958,-0.42259 z M 122.30143,163.4453 c 0.191,-0.0764 0.4192,-0.067 0.50712,0.0209 0.0879,0.0879 -0.0683,0.15045 -0.34727,0.13896 -0.30822,-0.0127 -0.37091,-0.0754 -0.15985,-0.15985 z m 71.17292,0 c 0.19099,-0.0764 0.4192,-0.067 0.50712,0.0209 0.0879,0.0879 -0.0684,0.15045 -0.34727,0.13896 -0.30822,-0.0127 -0.37092,-0.0754 -0.15985,-0.15985 z m 6.06391,-1.16338 c 0.0936,-0.35777 0.21349,-0.47771 0.27954,-0.27955 0.0636,0.19088 -0.0101,0.47285 -0.16385,0.6266 -0.19634,0.19634 -0.23078,0.093 -0.11569,-0.34705 z M 45.113593,161.8842 c 0.0127,-0.30822 0.07539,-0.37092 0.159853,-0.15985 0.07643,0.19099 0.06703,0.4192 -0.02089,0.50712 -0.08792,0.0879 -0.150453,-0.0684 -0.138964,-0.34727 z m 67.149527,-1.89618 c -0.3291,-0.41964 -0.31975,-0.429 0.0999,-0.0999 0.25466,0.19972 0.46302,0.40808 0.46302,0.46302 0,0.21777 -0.21727,0.0776 -0.56292,-0.36312 z m -19.737935,-1.65365 c 0,-0.65484 0.0516,-0.92273 0.114663,-0.59531 0.06307,0.32742 0.06307,0.8632 0,1.19063 -0.06306,0.32742 -0.114663,0.0595 -0.114663,-0.59532 z m 117.633775,0.59532 c -0.32911,-0.41965 -0.31975,-0.42901 0.0999,-0.0999 0.44073,0.34564 0.58088,0.56292 0.36312,0.56292 -0.0549,0 -0.2633,-0.20836 -0.46302,-0.46302 z M 77.322264,158.15363 c 0.190994,-0.0764 0.419197,-0.067 0.507119,0.0209 0.08792,0.0879 -0.06835,0.15045 -0.347266,0.13896 -0.308226,-0.0127 -0.37092,-0.0754 -0.159853,-0.15985 z M 192.43188,157.0776 c -0.32911,-0.41964 -0.31975,-0.429 0.0999,-0.0999 0.25466,0.19972 0.46302,0.40808 0.46302,0.46302 0,0.21776 -0.21727,0.0776 -0.56291,-0.36313 z M 137.1886,146.53837 c 0.0127,-0.30823 0.0754,-0.37092 0.15985,-0.15986 0.0764,0.191 0.067,0.41921 -0.0209,0.50712 -0.0879,0.0879 -0.15045,-0.0683 -0.13896,-0.34726 z m 80.61088,0.22073 c 3.38336,-0.0419 8.91977,-0.0419 12.30313,0 3.38336,0.0419 0.61515,0.0761 -6.15157,0.0761 -6.76672,0 -9.53492,-0.0343 -6.15156,-0.0761 z m -80.59,-2.97681 c 0,-0.3638 0.0601,-0.51263 0.13346,-0.33073 0.0734,0.1819 0.0734,0.47956 0,0.66146 -0.0734,0.1819 -0.13346,0.0331 -0.13346,-0.33073 z m 74.59162,-2.53559 c 0.0127,-0.30823 0.0754,-0.37092 0.15985,-0.15985 0.0764,0.19099 0.067,0.4192 -0.0209,0.50712 -0.0879,0.0879 -0.15045,-0.0684 -0.13896,-0.34727 z m 33.92506,-3.54983 c 0,-0.80036 0.0496,-1.12778 0.11023,-0.7276 0.0606,0.40018 0.0606,1.05503 0,1.45521 -0.0606,0.40018 -0.11023,0.0728 -0.11023,-0.72761 z m 14.68778,-4.41407 c 0.19099,-0.0764 0.4192,-0.067 0.50711,0.0209 0.0879,0.0879 -0.0683,0.15045 -0.34726,0.13896 -0.30823,-0.0127 -0.37092,-0.0754 -0.15985,-0.15985 z M 121.2431,132.48905 c 0.19099,-0.0764 0.4192,-0.067 0.50712,0.0209 0.0879,0.0879 -0.0684,0.15045 -0.34727,0.13896 -0.30822,-0.0127 -0.37092,-0.0754 -0.15985,-0.15985 z m -16.83215,-1.00989 c 0.005,-0.43656 0.0647,-0.58312 0.13178,-0.32569 0.0671,0.25743 0.0627,0.61462 -0.01,0.79375 -0.0725,0.17913 -0.12736,-0.0315 -0.12197,-0.46806 z m 7.88592,0 c 0.34178,-0.3638 0.68094,-0.66145 0.7537,-0.66145 0.0728,0 -0.14734,0.29765 -0.48911,0.66145 -0.34178,0.36381 -0.68094,0.66146 -0.7537,0.66146 -0.0728,0 0.14734,-0.29765 0.48911,-0.66146 z m 119.16966,-0.19843 -0.50403,-0.59532 0.59531,0.50403 c 0.32743,0.27722 0.59532,0.54511 0.59532,0.59532 0,0.21173 -0.21294,0.0554 -0.6866,-0.50403 z m -121.53002,-0.61736 c 0.0127,-0.30823 0.0754,-0.37092 0.15985,-0.15986 0.0764,0.191 0.067,0.4192 -0.0209,0.50712 -0.0879,0.0879 -0.15045,-0.0683 -0.13897,-0.34726 z M 169.25944,128.24 c 0.98832,-0.051 2.53613,-0.0507 3.43959,8e-4 0.90345,0.0515 0.0948,0.0933 -1.79695,0.0928 -1.89177,-5.3e-4 -2.63096,-0.0426 -1.64264,-0.0936 z m 24.06608,-5.3e-4 c 1.27331,-0.0485 3.3569,-0.0485 4.63021,0 1.27331,0.0485 0.23151,0.0882 -2.3151,0.0882 -2.54662,0 -3.58842,-0.0397 -2.31511,-0.0882 z M 46.889011,127.97571 c 0.915208,-0.0518 2.343958,-0.0514 3.175,10e-4 0.831042,0.0523 0.08224,0.0947 -1.664014,0.0942 -1.74625,-5.2e-4 -2.426194,-0.0433 -1.510986,-0.0951 z m 74.866719,-0.50823 c 0.1819,-0.0734 0.47956,-0.0734 0.66146,0 0.1819,0.0734 0.0331,0.13345 -0.33073,0.13345 -0.3638,0 -0.51263,-0.0601 -0.33073,-0.13345 z M 54.290061,66.601408 c 0.329119,-0.06329 0.805369,-0.06088 1.058334,0.0053 0.252965,0.06622 -0.01631,0.118004 -0.598398,0.115067 -0.582083,-0.0029 -0.789054,-0.05712 -0.459936,-0.120406 z M 227.87018,50.203631 c 0.191,-0.07643 0.41921,-0.06703 0.50712,0.02087 0.0879,0.08792 -0.0683,0.150453 -0.34726,0.138965 -0.30823,-0.0127 -0.37092,-0.07539 -0.15986,-0.159851 z m 10.23607,-4.581761 c 0.56839,-0.582083 1.09297,-1.058333 1.16573,-1.058333 0.0728,0 -0.33276,0.47625 -0.90114,1.058333 -0.56839,0.582083 -1.09297,1.058334 -1.16573,1.058334 -0.0728,0 0.33275,-0.476251 0.90114,-1.058334 z m 4.6511,-9.943924 c 0.0127,-0.308224 0.0754,-0.370919 0.15985,-0.159852 0.0764,0.190996 0.067,0.419199 -0.0209,0.507118 -0.0879,0.08792 -0.15045,-0.06835 -0.13896,-0.347266 z M 228.66393,18.453629 c 0.191,-0.07643 0.41921,-0.06703 0.50712,0.02089 0.0879,0.08792 -0.0684,0.150453 -0.34726,0.138965 -0.30823,-0.0127 -0.37092,-0.07539 -0.15986,-0.159853 z"
         id="path225" />
      <path
         style="fill:#f48f4e;stroke-width:0.264583"
         d="m 221.30521,221.4699 c 0,-0.0549 0.20836,-0.2633 0.46302,-0.46302 0.41965,-0.32911 0.429,-0.31975 0.0999,0.0999 -0.34565,0.44073 -0.56292,0.58089 -0.56292,0.36313 z m -146.059042,-2.21521 -1.44617,-1.52136 1.521354,1.44618 c 1.413386,1.34353 1.642557,1.59653 1.44617,1.59653 -0.04135,0 -0.725961,-0.68461 -1.521354,-1.52135 z m 83.038602,-1.04064 c 0.19099,-0.0764 0.4192,-0.067 0.50711,0.0209 0.0879,0.0879 -0.0683,0.15045 -0.34726,0.13896 -0.30823,-0.0127 -0.37092,-0.0754 -0.15985,-0.15985 z m -85.179981,-1.07603 c -0.329107,-0.41964 -0.319749,-0.429 0.0999,-0.0999 0.254662,0.19972 0.463021,0.40808 0.463021,0.46302 0,0.21776 -0.217273,0.0776 -0.562917,-0.36313 z m 153.227501,-0.69521 c 0,-0.0549 0.20836,-0.2633 0.46302,-0.46302 0.41965,-0.3291 0.42901,-0.31975 0.0999,0.0999 -0.34564,0.44073 -0.56292,0.58089 -0.56292,0.36312 z M 51.938123,182.74219 c -0.329107,-0.41965 -0.319749,-0.42901 0.0999,-0.0999 0.440729,0.34565 0.580887,0.56292 0.363126,0.56292 -0.05494,0 -0.263302,-0.20836 -0.463021,-0.46302 z M 246.67146,107.33593 c -0.32911,-0.41964 -0.31975,-0.429 0.0999,-0.0999 0.44073,0.34564 0.58088,0.56292 0.36312,0.56292 -0.0549,0 -0.2633,-0.20836 -0.46302,-0.46303 z M 54.088539,105.28541 c 0.790423,-0.80036 1.496663,-1.4552 1.569424,-1.4552 0.07276,0 -0.514418,0.65484 -1.304841,1.4552 -0.790422,0.80037 -1.496663,1.45521 -1.569423,1.45521 -0.07276,0 0.514417,-0.65484 1.30484,-1.45521 z m 188.755071,-1.78593 -0.50402,-0.59532 0.59531,0.50403 c 0.55944,0.47366 0.71576,0.6866 0.50403,0.6866 -0.0502,0 -0.3181,-0.26789 -0.59532,-0.59531 z M 223.95104,71.418746 c -1.08412,-1.091406 -1.91159,-1.984375 -1.83883,-1.984375 0.0728,0 1.01929,0.892969 2.10342,1.984375 1.08412,1.091406 1.9116,1.984375 1.83884,1.984375 -0.0728,0 -1.0193,-0.892969 -2.10343,-1.984375 z m -82.35156,0.48623 c 0.1819,-0.0734 0.47956,-0.0734 0.66146,0 0.1819,0.0734 0.0331,0.133453 -0.33073,0.133453 -0.3638,0 -0.51263,-0.06005 -0.33073,-0.133453 z m 15.08125,0 c 0.1819,-0.0734 0.47956,-0.0734 0.66146,0 0.1819,0.0734 0.0331,0.133453 -0.33073,0.133453 -0.3638,0 -0.51263,-0.06005 -0.33073,-0.133453 z m -3.15846,-31.226347 c 0.19099,-0.07643 0.4192,-0.06703 0.50711,0.02089 0.0879,0.08792 -0.0684,0.150453 -0.34726,0.138965 -0.30823,-0.01269 -0.37092,-0.07539 -0.15985,-0.159853 z"
         id="path223" />
      <path
         style="fill:#f28239;stroke-width:0.264583"
         d="m 223.42188,219.32083 c 0.79042,-0.80036 1.49666,-1.4552 1.56942,-1.4552 0.0728,0 -0.51442,0.65484 -1.30484,1.4552 -0.79042,0.80037 -1.49666,1.45521 -1.56942,1.45521 -0.0728,0 0.51442,-0.65484 1.30484,-1.45521 z m -74.94913,-0.85241 c 0.46969,-0.0585 1.30313,-0.0594 1.85208,-0.002 0.54895,0.0573 0.16465,0.1051 -0.854,0.10627 -1.01864,0.001 -1.46778,-0.0457 -0.99808,-0.10413 z m 77.19809,-1.39654 c 0.26339,-0.29105 0.53842,-0.52917 0.61118,-0.52917 0.0728,0 -0.0832,0.23812 -0.3466,0.52917 -0.26339,0.29104 -0.53842,0.52916 -0.61118,0.52916 -0.0728,0 0.0832,-0.23812 0.3466,-0.52916 z m 22.0927,-35.28948 c 0,-0.0549 0.20836,-0.2633 0.46303,-0.46303 0.41964,-0.3291 0.429,-0.31974 0.0999,0.0999 -0.34564,0.44073 -0.56292,0.58089 -0.56292,0.36313 z M 52.104164,107.26979 c 0.263389,-0.29104 0.53842,-0.52917 0.611181,-0.52917 0.07276,0 -0.08321,0.23813 -0.346598,0.52917 -0.263389,0.29104 -0.53842,0.52917 -0.611181,0.52917 -0.07276,0 0.08321,-0.23813 0.346598,-0.52917 z m 3.571875,-3.53948 c 0,-0.0549 0.208359,-0.2633 0.463021,-0.46302 0.419644,-0.32911 0.429002,-0.31975 0.09989,0.0999 -0.345644,0.44073 -0.562916,0.58089 -0.562916,0.36313 z M 71.021873,75.419892 c 0,-0.05494 0.208359,-0.2633 0.463021,-0.463021 0.419645,-0.329107 0.429003,-0.319749 0.0999,0.0999 -0.345644,0.44073 -0.562917,0.580888 -0.562917,0.363125 z m 6.614583,-6.614584 c 0,-0.05494 0.20836,-0.2633 0.463021,-0.463021 0.419645,-0.329107 0.429003,-0.319749 0.0999,0.0999 -0.345644,0.44073 -0.562917,0.580888 -0.562917,0.363125 z M 219.94854,67.648433 c -0.3291,-0.419645 -0.31975,-0.429003 0.0999,-0.0999 0.44073,0.345644 0.58089,0.562917 0.36312,0.562917 -0.0549,0 -0.2633,-0.208359 -0.46302,-0.463021 z M 146.10048,40.67224 c 0.32912,-0.06329 0.80537,-0.06088 1.05833,0.0053 0.25297,0.06622 -0.0163,0.118003 -0.59839,0.115066 -0.58209,-0.0029 -0.78906,-0.05712 -0.45994,-0.120406 z m 5.95004,0.0047 c 0.25466,-0.06655 0.67138,-0.06655 0.92604,0 0.25466,0.06655 0.0463,0.121 -0.46302,0.121 -0.50932,0 -0.71768,-0.05445 -0.46302,-0.121 z"
         id="path221" />
      <path
         style="fill:#f27625;stroke-width:0.264583"
         d="m 142.19479,249.35248 c -15.0115,-1.22873 -27.97776,-4.86435 -40.84445,-11.4524 -22.94012,-11.7459 -40.769344,-31.36876 -50.169114,-55.21616 l -0.503442,-1.27725 2.432982,2.5193 c 17.076563,17.68235 45.74216,30.15056 77.045484,33.5112 6.05008,0.64952 6.8729,0.70813 13.22917,0.94228 27.39672,1.00924 53.90069,-4.36384 75.80312,-15.36737 10.58361,-5.31708 17.61992,-10.24747 25.19475,-17.65412 l 3.8958,-3.80929 -0.9416,2.34963 c -4.00398,9.99143 -10.53056,20.61402 -17.85605,29.06234 -2.61577,3.0167 -8.7211,9.101 -11.48352,11.44396 -16.04351,13.60738 -35.84704,22.15053 -56.88542,24.5401 -4.39828,0.49956 -15.00352,0.72816 -18.91771,0.40778 z M 50.883007,108.27614 c 0.8179,-2.15125 2.673106,-6.29345 4.065014,-9.076143 12.373418,-24.736889 34.040315,-43.747898 59.993469,-52.639586 11.85669,-4.062164 21.95127,-5.754392 34.39705,-5.766226 7.04214,-0.0067 10.62102,0.263135 16.92729,1.276244 36.2074,5.816748 66.88182,30.059864 80.94443,63.973351 0.59535,1.43575 1.08245,2.63006 1.08245,2.65402 0,0.024 -1.63711,-1.5702 -3.63802,-3.54257 -18.22919,-17.969203 -45.7821,-29.321474 -79.44115,-32.731117 -6.58101,-0.666655 -24.84545,-0.664785 -31.48542,0.0032 -19.18484,1.93007 -35.356659,6.119863 -50.403122,13.05844 -11.932817,5.502738 -23.397769,13.472346 -30.720798,21.354877 -1.318365,1.41909 -1.899108,1.90344 -1.721193,1.43549 z"
         id="path219" />
      <path
         style="fill:#757576;stroke-width:0.264583"
         d="m 106.15568,176.92363 c 0.91521,-0.0518 2.34396,-0.0514 3.175,0.001 0.83104,0.0523 0.0822,0.0947 -1.66401,0.0942 -1.74625,-5.3e-4 -2.4262,-0.0433 -1.51099,-0.0951 z m 14.27713,-13.48431 c 0.32742,-0.0631 0.8632,-0.0631 1.19063,0 0.32742,0.0631 0.0595,0.11466 -0.59532,0.11466 -0.65484,0 -0.92273,-0.0516 -0.59531,-0.11466 z m -27.937912,-3.51745 c 0,-0.3638 0.06006,-0.51263 0.133454,-0.33072 0.0734,0.1819 0.0734,0.47955 0,0.66145 -0.0734,0.1819 -0.133454,0.0331 -0.133454,-0.33073 z m -40.92808,-16.13958 c 0,-8.65849 0.03338,-12.2006 0.07417,-7.87135 0.04079,4.32924 0.04079,11.41346 0,15.7427 -0.0408,4.32925 -0.07417,0.78714 -0.07417,-7.87135 z m 35.350944,15.19149 c 0.0127,-0.30822 0.07539,-0.37091 0.159851,-0.15985 0.07643,0.191 0.06703,0.4192 -0.02088,0.50712 -0.08792,0.0879 -0.150453,-0.0684 -0.138964,-0.34727 z m 112.447918,-0.52916 c 0.0127,-0.30823 0.0754,-0.37092 0.15985,-0.15986 0.0764,0.191 0.067,0.41921 -0.0209,0.50712 -0.0879,0.0879 -0.15046,-0.0683 -0.13897,-0.34726 z M 76.528514,158.15363 c 0.190994,-0.0764 0.419197,-0.067 0.507118,0.0209 0.08792,0.0879 -0.06835,0.15045 -0.347265,0.13896 -0.308227,-0.0127 -0.37092,-0.0754 -0.159853,-0.15985 z M 184.91245,142.59167 c 8e-5,-5.38428 0.0354,-7.54938 0.0784,-4.81135 0.043,2.73804 0.043,7.14335 -1.5e-4,9.78959 -0.0431,2.64624 -0.0783,0.40603 -0.0782,-4.97824 z m -121.521719,7.8052 c 0,-0.3638 0.06005,-0.51263 0.133453,-0.33073 0.0734,0.18191 0.0734,0.47956 0,0.66146 -0.0734,0.1819 -0.133453,0.0331 -0.133453,-0.33073 z m 73.843699,-5.15937 c 0.003,-0.58208 0.0571,-0.78905 0.12041,-0.45994 0.0633,0.32912 0.0609,0.80537 -0.005,1.05834 -0.0662,0.25296 -0.118,-0.0163 -0.11506,-0.5984 z m 117.1437,-9.26042 c 0.34177,-0.3638 0.68094,-0.66146 0.7537,-0.66146 0.0728,0 -0.14734,0.29766 -0.48912,0.66146 -0.34177,0.3638 -0.68094,0.66146 -0.7537,0.66146 -0.0728,0 0.14734,-0.29766 0.48912,-0.66146 z m -8.6423,-1.45521 c 0,-1.0914 0.0467,-1.53789 0.10379,-0.99218 0.0571,0.5457 0.0571,1.43867 0,1.98437 -0.0571,0.5457 -0.10379,0.0992 -0.10379,-0.99219 z m -118.51514,0.46302 -0.50402,-0.59531 0.59531,0.50403 c 0.32742,0.27721 0.59531,0.54511 0.59531,0.59531 0,0.21174 -0.21293,0.0554 -0.6866,-0.50403 z m 123.77475,-3.16574 -0.0569,-3.36418 -2.71197,-0.0857 -2.71198,-0.0858 2.72028,-0.0558 c 2.03766,-0.0418 2.75361,0.0311 2.85311,0.29034 0.0731,0.19037 0.0949,1.76795 0.0486,3.50573 l -0.0842,3.15959 z M 109.9574,131.61146 c 0,-0.36381 0.06,-0.51263 0.13345,-0.33073 0.0734,0.1819 0.0734,0.47955 0,0.66146 -0.0734,0.1819 -0.13345,0.0331 -0.13345,-0.33073 z m 22.14947,-0.19844 c -0.3291,-0.41965 -0.31974,-0.429 0.0999,-0.0999 0.44073,0.34565 0.58089,0.56292 0.36313,0.56292 -0.0549,0 -0.26331,-0.20836 -0.46303,-0.46302 z m 121.87438,-0.8599 c 0.26339,-0.29104 0.53842,-0.52916 0.61119,-0.52916 0.0728,0 -0.0832,0.23812 -0.3466,0.52916 -0.26339,0.29104 -0.53843,0.52917 -0.61119,0.52917 -0.0728,0 0.0832,-0.23813 0.3466,-0.52917 z m -73.22344,-2.31172 c 0.76399,-0.0534 2.01414,-0.0534 2.77813,0 0.76398,0.0534 0.1389,0.0972 -1.38906,0.0972 -1.52797,0 -2.15305,-0.0437 -1.38907,-0.0972 z M 46.395597,63.150517 l -0.641433,-0.727605 0.727604,0.641432 c 0.680056,0.599517 0.848939,0.813777 0.641433,0.813777 -0.04739,0 -0.374816,-0.327422 -0.727604,-0.727604 z M 224.84567,50.124512 c -6.20108,-0.929698 -11.26714,-5.270061 -13.1304,-11.249517 -0.7467,-2.396266 -0.79086,-6.401269 -0.0963,-8.73125 1.61889,-5.430497 5.72228,-9.532822 11.14142,-11.138551 1.93316,-0.572807 5.98909,-0.64277 8.06979,-0.139201 9.03976,2.187792 14.25044,11.938353 11.12775,20.822962 -1.10238,3.136457 -3.53314,6.173522 -6.47679,8.092309 -2.81265,1.833388 -7.35744,2.834712 -10.6355,2.343248 z"
         id="path217" />
      <path
         style="fill:#606161;stroke-width:0.264583"
         d="m 153.70417,173.41562 c 0.26339,-0.29104 0.53842,-0.52916 0.61118,-0.52916 0.0728,0 -0.0832,0.23812 -0.3466,0.52916 -0.26339,0.29105 -0.53842,0.52917 -0.61118,0.52917 -0.0728,0 0.0832,-0.23812 0.3466,-0.52917 z m -78.776608,-9.97671 c 0.329118,-0.0633 0.805368,-0.0609 1.058333,0.005 0.252966,0.0662 -0.01632,0.118 -0.598397,0.11506 -0.582083,-0.003 -0.789054,-0.0571 -0.459936,-0.1204 z m 12.406189,-0.80506 c -0.06794,-0.10914 0.728712,-0.1659 1.770324,-0.12613 3.403359,0.12993 3.796271,0.23478 1.04956,0.28009 -1.483,0.0245 -2.751947,-0.0448 -2.819884,-0.15396 z m -20.173475,-2.24895 -0.504028,-0.59532 0.595312,0.50403 c 0.559446,0.47366 0.715762,0.6866 0.504029,0.6866 -0.05021,0 -0.318098,-0.26789 -0.595313,-0.59531 z m 16.82618,-0.0166 c 0,-0.0455 0.386954,-0.43249 0.859896,-0.8599 l 0.859896,-0.7771 -0.777105,0.8599 c -0.724371,0.80154 -0.942687,0.98151 -0.942687,0.7771 z m 36.049484,-1.68709 c 0.25466,-0.0666 0.67138,-0.0666 0.92604,0 0.25466,0.0666 0.0463,0.121 -0.46302,0.121 -0.50933,0 -0.71768,-0.0544 -0.46302,-0.121 z m 102.66337,-0.001 c 0.25743,-0.0671 0.61462,-0.0627 0.79375,0.01 0.17913,0.0725 -0.0315,0.12737 -0.46806,0.12197 -0.43656,-0.005 -0.58312,-0.0647 -0.32569,-0.13177 z M 92.575464,140.73958 c 5e-5,-6.985 0.03421,-9.8045 0.07591,-6.26556 0.0417,3.53894 0.04166,9.25394 -9.5e-5,12.7 -0.04175,3.44606 -0.07587,0.55056 -0.07582,-6.43444 z m 98.422546,1.98438 c 0,-5.45703 0.0352,-7.68946 0.0782,-4.96094 0.043,2.72852 0.043,7.19336 0,9.92187 -0.043,2.72852 -0.0782,0.4961 -0.0782,-4.96093 z m -127.628165,6.72482 c 0.0127,-0.30822 0.07539,-0.37091 0.15985,-0.15985 0.07643,0.191 0.06703,0.4192 -0.02087,0.50712 -0.08792,0.0879 -0.150453,-0.0684 -0.138965,-0.34727 z m 6.184117,-11.48732 c 0,-5.31151 0.03531,-7.4844 0.07847,-4.82865 0.04316,2.65576 0.04316,7.00154 0,9.65729 -0.04316,2.65576 -0.07847,0.48287 -0.07847,-4.82864 z m 61.549218,8.04774 c 0.0127,-0.30823 0.0754,-0.37092 0.15985,-0.15985 0.0764,0.19099 0.067,0.4192 -0.0209,0.50712 -0.0879,0.0879 -0.15046,-0.0684 -0.13897,-0.34727 z m 0,-1.32292 c 0.0127,-0.30822 0.0754,-0.37091 0.15985,-0.15985 0.0764,0.191 0.067,0.4192 -0.0209,0.50712 -0.0879,0.0879 -0.15046,-0.0683 -0.13897,-0.34727 z m 79.75099,-12.54566 c 0.26339,-0.29104 0.53842,-0.52916 0.61118,-0.52916 0.0728,0 -0.0832,0.23812 -0.3466,0.52916 -0.26339,0.29105 -0.53842,0.52917 -0.61118,0.52917 -0.0728,0 0.0832,-0.23812 0.3466,-0.52917 z m 34.83448,0 c 0,-0.3638 0.0601,-0.51263 0.13346,-0.33073 0.0734,0.18191 0.0734,0.47956 0,0.66146 -0.0734,0.1819 -0.13346,0.0331 -0.13346,-0.33073 z m -100.45115,-3.70416 -3.43958,-0.15655 3.35782,-0.054 c 2.01365,-0.0324 3.42328,0.0519 3.52134,0.21057 0.0899,0.14552 0.12673,0.24027 0.0818,0.21056 -0.045,-0.0297 -1.62957,-0.12446 -3.52134,-0.21056 z m 45.75091,-4.8948 c 2.6e-4,-2.76489 0.0395,-3.86004 0.0871,-2.43365 0.0477,1.42639 0.0475,3.68858 -5.3e-4,5.02708 -0.0479,1.33851 -0.0869,0.17147 -0.0867,-2.59343 z m 30.38658,4.17577 c 0.40219,-0.0608 0.9975,-0.0592 1.32292,0.004 0.32542,0.0628 -0.004,0.11256 -0.73124,0.11057 -0.72761,-0.002 -0.99386,-0.0534 -0.59168,-0.11418 z m 40.08074,-0.24995 c 0.1819,-0.0734 0.47956,-0.0734 0.66146,0 0.1819,0.0734 0.0331,0.13345 -0.33073,0.13345 -0.3638,0 -0.51263,-0.0601 -0.33073,-0.13345 z M 51.306959,66.04803 c -6.737597,-2.329805 -9.900632,-9.515645 -6.936227,-15.757841 2.203602,-4.640159 7.275619,-7.371988 12.121548,-6.52876 6.217704,1.081926 10.46623,6.737355 9.596053,12.773798 -0.843201,5.8493 -5.659224,10.006991 -11.560346,9.980089 -1.088791,-0.005 -2.45881,-0.203716 -3.221028,-0.467286 z"
         id="path215" />
      <path
         style="fill:#4d4d4d;stroke-width:0.264583"
         d="m 144.46407,175.88146 c -0.39884,-1.38085 -0.68564,-2.53606 -0.63733,-2.56712 0.0483,-0.0311 1.04034,-0.51762 2.20451,-1.08125 4.02008,-1.94632 8.96478,-7.87715 8.90442,-10.68024 -0.0162,-0.75275 -7.30891,-19.25217 -12.92772,-32.7938 -0.1109,-0.26728 0.57319,-0.32318 3.2382,-0.26459 l 3.3788,0.0743 3.53491,9.39271 c 1.9442,5.16599 4.14606,11.27452 4.89301,13.57451 0.74696,2.29999 1.43774,4.08593 1.53506,3.96875 0.0973,-0.11718 0.38261,-0.92743 0.63396,-1.80055 0.25136,-0.87313 2.25541,-6.91555 4.45345,-13.42761 l 3.99645,-11.8401 h 3.16736 c 2.88861,0 3.15616,0.0408 3.04013,0.46302 -0.2989,1.08777 -9.58262,24.99023 -11.18171,28.78914 -2.13075,5.06194 -4.59133,10.0179 -6.03488,12.15513 -2.73941,4.05577 -6.42408,6.96681 -10.39099,8.20931 l -1.08246,0.33905 z m -107.696996,0.88846 c -0.157082,-0.72976 -0.598763,-3.88346 -0.543886,-3.88346 0.787452,0 3.484507,-0.7411 4.417341,-1.2138 2.8504,-1.44441 3.873854,-3.08297 4.431961,-7.09562 0.179394,-1.28979 0.284799,-8.40556 0.284799,-19.22639 v -17.17878 h 3.042708 3.042709 l 0.06614,15.80886 c 0.08829,21.10186 0.109186,20.29609 -0.585596,22.58351 -1.181774,3.89073 -2.866839,6.50228 -5.19085,8.04487 -1.81629,1.20558 -5.177735,2.39773 -7.320192,2.59612 -1.403695,0.12999 -1.530692,0.0964 -1.645139,-0.43531 z m 67.853966,-23.1319 c -0.002,-12.76945 -0.0767,-23.66367 -0.16691,-24.20938 l -0.16399,-0.99218 h 2.81274 2.81274 l 0.0152,1.91823 c 0.008,1.05502 0.0996,2.39401 0.20276,2.97553 l 0.18751,1.05731 0.60546,-0.97965 c 0.333,-0.5388 1.21927,-1.53152 1.9695,-2.20604 4.28388,-3.85158 10.69734,-4.6645 16.06953,-2.03686 2.14823,1.05074 4.94167,3.97086 6.13694,6.41523 1.39955,2.86214 1.8233,4.70075 1.98679,8.62049 0.11133,2.66925 0.0413,3.97074 -0.30624,5.68854 -1.71867,8.49595 -7.44928,13.45465 -15.5649,13.46831 -3.80683,0.006 -7.10914,-1.45788 -9.45205,-4.19116 l -1.05337,-1.22889 -0.002,9.45885 -0.002,9.45886 h -3.0427 -3.04271 l -0.003,-23.21719 z m 19.77964,4.38188 c 2.90184,-1.07997 5.41591,-4.28506 6.31218,-8.04716 0.53026,-2.22574 0.5928,-6.58812 0.12289,-8.5717 -0.87284,-3.68443 -2.95633,-6.60565 -5.65437,-7.92789 -3.88879,-1.90579 -8.11906,-1.04901 -11.32275,2.29328 -2.74951,2.86844 -3.2338,4.56678 -3.10325,10.88258 0.0926,4.47787 0.1283,4.74296 0.85191,6.32024 1.28462,2.80014 4.06398,4.99849 7.11094,5.62443 1.50212,0.30858 3.9853,0.0578 5.68245,-0.57378 z m 94.01317,5.19524 c -5.8256,-1.26336 -10.155,-5.31219 -12.15049,-11.36306 -0.68616,-2.08065 -0.57968,-8.31016 0.19222,-11.24479 1.6678,-6.34069 5.8448,-10.8769 11.33152,-12.30601 2.04251,-0.53201 6.45452,-0.51479 8.29873,0.0324 6.16448,1.829 9.4637,6.92592 9.94569,15.36495 l 0.17101,2.99409 h -12.21116 -12.21116 v 1.29504 c 0,5.06109 4.15521,9.73688 9.39529,10.57238 2.87932,0.4591 8.71528,-0.25218 11.5479,-1.40745 0.36624,-0.14936 0.52272,0.18203 0.95519,2.02289 0.3909,1.6639 0.44017,2.24711 0.20176,2.38823 -0.1735,0.1027 -1.31771,0.47706 -2.54269,0.83192 -4.14125,1.19966 -9.58028,1.54452 -12.92381,0.81942 z m 12.09331,-23.09577 c -0.24137,-3.37362 -2.11302,-6.12874 -5.1899,-7.63973 -1.9668,-0.96586 -4.69851,-1.00745 -6.98773,-0.10638 -1.75421,0.69048 -4.08123,2.69206 -5.04461,4.33912 -0.7157,1.22361 -1.50471,3.63797 -1.50471,4.60439 v 0.61344 h 9.42826 9.42826 z M 71.626721,162.97761 c -2.691138,-0.84104 -5.259766,-3.1025 -6.477871,-5.70322 -1.493351,-3.18838 -1.616517,-4.4008 -1.740217,-17.13012 l -0.113774,-11.70781 h 3.039872 3.039872 l 0.127889,11.04635 c 0.105453,9.10827 0.203317,11.31469 0.557792,12.57578 1.2309,4.37907 3.37039,6.14021 7.456448,6.13783 1.869295,-10e-4 2.344029,-0.10698 3.888677,-0.8674 2.113206,-1.04033 3.668144,-2.69931 4.424307,-4.72034 0.510625,-1.36476 0.537991,-2.02287 0.537991,-12.93736 v -11.49945 h 3.042708 3.042708 v 15.97037 c 0,8.7837 0.07631,16.52711 0.16958,17.20758 l 0.169579,1.23722 -2.749267,-0.0758 -2.749267,-0.0758 -0.06434,-1.45521 c -0.03538,-0.80037 -0.13317,-1.96918 -0.2173,-2.59737 l -0.152966,-1.14216 -1.564185,1.70704 c -2.937962,3.20626 -5.701138,4.4252 -9.965261,4.39604 -1.423419,-0.01 -3.08976,-0.1745 -3.702979,-0.36615 z m 119.252829,-0.0396 c -1.89221,-0.69048 -3.37893,-1.86912 -4.24046,-3.36175 -1.59631,-2.76568 -1.61376,-2.93425 -1.58721,-15.33096 l 0.0242,-11.31094 h -2.78754 -2.78753 v -2.24896 -2.24895 h 2.77157 2.77157 l 0.0727,-4.26951 0.0727,-4.26951 2.51354,-0.61448 c 1.38245,-0.33796 2.66237,-0.61933 2.84427,-0.62528 0.25306,-0.008 0.33073,1.13878 0.33073,4.88398 v 4.8948 h 4.63021 4.63021 v 2.24895 2.24896 h -4.63021 -4.63021 l 0.005,9.45886 c 0.007,12.42932 0.23697,13.90836 2.39032,15.36582 0.82756,0.56012 1.14772,0.60906 3.46783,0.53006 l 2.55609,-0.087 0.15297,0.92604 c 0.0841,0.50933 0.15429,1.47995 0.15589,2.15693 0.003,1.14875 -0.0545,1.2519 -0.85698,1.54573 -1.47963,0.54174 -6.49203,0.61004 -7.86993,0.10724 z m 54.81174,-17.43586 0.0879,-17.06555 2.57969,-8e-5 2.57968,-7e-5 v 3.30729 c 0,1.81901 0.10272,3.30729 0.22827,3.30729 0.12554,0 0.60075,-0.75664 1.05602,-1.68143 1.62118,-3.29307 4.81055,-5.44052 8.42468,-5.67246 l 1.9327,-0.12403 v 2.77473 2.77473 l -2.02258,0.15297 c -3.76717,0.2849 -6.75386,2.39246 -8.08523,5.70532 -0.58525,1.45629 -0.60262,1.77387 -0.6861,12.54048 l -0.0857,11.04636 h -3.04862 -3.04862 z"
         id="path213" />
    </g>
  </g>
</svg>
